<svg id="visual" viewBox="0 0 1200 500" width="1200" height="500" xmlns="http://www.w3.org/2000/svg" xmlns:xlink="http://www.w3.org/1999/xlink" version="1.1"><rect width="1200" height="500" fill="#001829"></rect><g><g transform="translate(1028 43)"><path d="M0 -30.9L26.7 -15.4L26.7 15.4L0 30.9L-26.7 15.4L-26.7 -15.4Z" stroke="#009473" fill="none" stroke-width="2"></path></g><g transform="translate(976 335)"><path d="M0 -25L21.7 -12.5L21.7 12.5L0 25L-21.7 12.5L-21.7 -12.5Z" stroke="#009473" fill="none" stroke-width="2"></path></g><g transform="translate(68 355)"><path d="M0 -29L25.1 -14.5L25.1 14.5L0 29L-25.1 14.5L-25.1 -14.5Z" stroke="#009473" fill="none" stroke-width="2"></path></g><g transform="translate(9 242)"><path d="M0 -23L19.9 -11.5L19.9 11.5L0 23L-19.9 11.5L-19.9 -11.5Z" stroke="#009473" fill="none" stroke-width="2"></path></g><g transform="translate(417 426)"><path d="M0 -25L21.7 -12.5L21.7 12.5L0 25L-21.7 12.5L-21.7 -12.5Z" stroke="#009473" fill="none" stroke-width="2"></path></g><g transform="translate(171 27)"><path d="M0 -26L22.5 -13L22.5 13L0 26L-22.5 13L-22.5 -13Z" stroke="#009473" fill="none" stroke-width="2"></path></g><g transform="translate(885 35)"><path d="M0 -23L19.9 -11.5L19.9 11.5L0 23L-19.9 11.5L-19.9 -11.5Z" stroke="#009473" fill="none" stroke-width="2"></path></g><g transform="translate(457 106)"><path d="M0 -23L19.9 -11.5L19.9 11.5L0 23L-19.9 11.5L-19.9 -11.5Z" stroke="#009473" fill="none" stroke-width="2"></path></g><g transform="translate(713 303)"><path d="M0 -23L19.9 -11.5L19.9 11.5L0 23L-19.9 11.5L-19.9 -11.5Z" stroke="#009473" fill="none" stroke-width="2"></path></g><g transform="translate(1130 87)"><path d="M0 -25L21.7 -12.5L21.7 12.5L0 25L-21.7 12.5L-21.7 -12.5Z" stroke="#009473" fill="none" stroke-width="2"></path></g><g transform="translate(1032 189)"><path d="M0 -28L24.2 -14L24.2 14L0 28L-24.2 14L-24.2 -14Z" stroke="#009473" fill="none" stroke-width="2"></path></g><g transform="translate(462 30)"><path d="M0 -24L20.8 -12L20.8 12L0 24L-20.8 12L-20.8 -12Z" stroke="#009473" fill="none" stroke-width="2"></path></g><g transform="translate(313 322)"><path d="M0 -29L25.1 -14.5L25.1 14.5L0 29L-25.1 14.5L-25.1 -14.5Z" stroke="#009473" fill="none" stroke-width="2"></path></g><g transform="translate(1126 231)"><path d="M0 -26L22.5 -13L22.5 13L0 26L-22.5 13L-22.5 -13Z" stroke="#009473" fill="none" stroke-width="2"></path></g><g transform="translate(881 480)"><path d="M0 -28L24.2 -14L24.2 14L0 28L-24.2 14L-24.2 -14Z" stroke="#009473" fill="none" stroke-width="2"></path></g><g transform="translate(945 445)"><path d="M0 -27L23.4 -13.5L23.4 13.5L0 27L-23.4 13.5L-23.4 -13.5Z" stroke="#009473" fill="none" stroke-width="2"></path></g><g transform="translate(490 453)"><path d="M0 -23L19.9 -11.5L19.9 11.5L0 23L-19.9 11.5L-19.9 -11.5Z" stroke="#009473" fill="none" stroke-width="2"></path></g><g transform="translate(623 367)"><path d="M0 -25L21.7 -12.5L21.7 12.5L0 25L-21.7 12.5L-21.7 -12.5Z" stroke="#009473" fill="none" stroke-width="2"></path></g><g transform="translate(28 85)"><path d="M0 -23L19.9 -11.5L19.9 11.5L0 23L-19.9 11.5L-19.9 -11.5Z" stroke="#009473" fill="none" stroke-width="2"></path></g><g transform="translate(893 270)"><path d="M0 -29L25.1 -14.5L25.1 14.5L0 29L-25.1 14.5L-25.1 -14.5Z" stroke="#009473" fill="none" stroke-width="2"></path></g><g transform="translate(573 309)"><path d="M0 -26L22.5 -13L22.5 13L0 26L-22.5 13L-22.5 -13Z" stroke="#009473" fill="none" stroke-width="2"></path></g><g transform="translate(192 244)"><path d="M0 -25L21.7 -12.5L21.7 12.5L0 25L-21.7 12.5L-21.7 -12.5Z" stroke="#009473" fill="none" stroke-width="2"></path></g><g transform="translate(1085 467)"><path d="M0 -24L20.8 -12L20.8 12L0 24L-20.8 12L-20.8 -12Z" stroke="#009473" fill="none" stroke-width="2"></path></g><g transform="translate(220 74)"><path d="M0 -24L20.8 -12L20.8 12L0 24L-20.8 12L-20.8 -12Z" stroke="#009473" fill="none" stroke-width="2"></path></g><g transform="translate(539 82)"><path d="M0 -27L23.4 -13.5L23.4 13.5L0 27L-23.4 13.5L-23.4 -13.5Z" stroke="#009473" fill="none" stroke-width="2"></path></g><g transform="translate(130 110)"><path d="M0 -23L19.9 -11.5L19.9 11.5L0 23L-19.9 11.5L-19.9 -11.5Z" stroke="#009473" fill="none" stroke-width="2"></path></g><g transform="translate(1193 59)"><path d="M0 -26L22.5 -13L22.5 13L0 26L-22.5 13L-22.5 -13Z" stroke="#009473" fill="none" stroke-width="2"></path></g><g transform="translate(357 455)"><path d="M0 -29L25.1 -14.5L25.1 14.5L0 29L-25.1 14.5L-25.1 -14.5Z" stroke="#009473" fill="none" stroke-width="2"></path></g><g transform="translate(560 23)"><path d="M0 -25L21.7 -12.5L21.7 12.5L0 25L-21.7 12.5L-21.7 -12.5Z" stroke="#009473" fill="none" stroke-width="2"></path></g><g transform="translate(1113 344)"><path d="M0 -24L20.8 -12L20.8 12L0 24L-20.8 12L-20.8 -12Z" stroke="#009473" fill="none" stroke-width="2"></path></g><g transform="translate(894 147)"><path d="M0 -24L20.8 -12L20.8 12L0 24L-20.8 12L-20.8 -12Z" stroke="#009473" fill="none" stroke-width="2"></path></g><g transform="translate(261 135)"><path d="M0 -26L22.5 -13L22.5 13L0 26L-22.5 13L-22.5 -13Z" stroke="#009473" fill="none" stroke-width="2"></path></g><g transform="translate(1151 466)"><path d="M0 -26L22.5 -13L22.5 13L0 26L-22.5 13L-22.5 -13Z" stroke="#009473" fill="none" stroke-width="2"></path></g><g transform="translate(709 208)"><path d="M0 -24L20.8 -12L20.8 12L0 24L-20.8 12L-20.8 -12Z" stroke="#009473" fill="none" stroke-width="2"></path></g><g transform="translate(815 490)"><path d="M0 -24L20.8 -12L20.8 12L0 24L-20.8 12L-20.8 -12Z" stroke="#009473" fill="none" stroke-width="2"></path></g><g transform="translate(969 192)"><path d="M0 -28L24.2 -14L24.2 14L0 28L-24.2 14L-24.2 -14Z" stroke="#009473" fill="none" stroke-width="2"></path></g><g transform="translate(747 153)"><path d="M0 -27L23.4 -13.5L23.4 13.5L0 27L-23.4 13.5L-23.4 -13.5Z" stroke="#009473" fill="none" stroke-width="2"></path></g><g transform="translate(636 118)"><path d="M0 -27L23.4 -13.5L23.4 13.5L0 27L-23.4 13.5L-23.4 -13.5Z" stroke="#009473" fill="none" stroke-width="2"></path></g><g transform="translate(1191 147)"><path d="M0 -25L21.7 -12.5L21.7 12.5L0 25L-21.7 12.5L-21.7 -12.5Z" stroke="#009473" fill="none" stroke-width="2"></path></g><g transform="translate(110 433)"><path d="M0 -28L24.2 -14L24.2 14L0 28L-24.2 14L-24.2 -14Z" stroke="#009473" fill="none" stroke-width="2"></path></g><g transform="translate(784 74)"><path d="M0 -26L22.5 -13L22.5 13L0 26L-22.5 13L-22.5 -13Z" stroke="#009473" fill="none" stroke-width="2"></path></g><g transform="translate(523 392)"><path d="M0 -26L22.5 -13L22.5 13L0 26L-22.5 13L-22.5 -13Z" stroke="#009473" fill="none" stroke-width="2"></path></g><g transform="translate(859 341)"><path d="M0 -23L19.9 -11.5L19.9 11.5L0 23L-19.9 11.5L-19.9 -11.5Z" stroke="#009473" fill="none" stroke-width="2"></path></g><g transform="translate(293 52)"><path d="M0 -27L23.4 -13.5L23.4 13.5L0 27L-23.4 13.5L-23.4 -13.5Z" stroke="#009473" fill="none" stroke-width="2"></path></g><g transform="translate(1192 269)"><path d="M0 -28L24.2 -14L24.2 14L0 28L-24.2 14L-24.2 -14Z" stroke="#009473" fill="none" stroke-width="2"></path></g><g transform="translate(736 387)"><path d="M0 -25L21.7 -12.5L21.7 12.5L0 25L-21.7 12.5L-21.7 -12.5Z" stroke="#009473" fill="none" stroke-width="2"></path></g><g transform="translate(338 216)"><path d="M0 -25L21.7 -12.5L21.7 12.5L0 25L-21.7 12.5L-21.7 -12.5Z" stroke="#009473" fill="none" stroke-width="2"></path></g><g transform="translate(416 250)"><path d="M0 -26L22.5 -13L22.5 13L0 26L-22.5 13L-22.5 -13Z" stroke="#009473" fill="none" stroke-width="2"></path></g><g transform="translate(703 48)"><path d="M0 -25L21.7 -12.5L21.7 12.5L0 25L-21.7 12.5L-21.7 -12.5Z" stroke="#009473" fill="none" stroke-width="2"></path></g><g transform="translate(1144 8)"><path d="M0 -24L20.8 -12L20.8 12L0 24L-20.8 12L-20.8 -12Z" stroke="#009473" fill="none" stroke-width="2"></path></g><g transform="translate(828 412)"><path d="M0 -27L23.4 -13.5L23.4 13.5L0 27L-23.4 13.5L-23.4 -13.5Z" stroke="#009473" fill="none" stroke-width="2"></path></g><g transform="translate(105 294)"><path d="M0 -24L20.8 -12L20.8 12L0 24L-20.8 12L-20.8 -12Z" stroke="#009473" fill="none" stroke-width="2"></path></g><g transform="translate(380 304)"><path d="M0 -27L23.4 -13.5L23.4 13.5L0 27L-23.4 13.5L-23.4 -13.5Z" stroke="#009473" fill="none" stroke-width="2"></path></g><g transform="translate(572 171)"><path d="M0 -29L25.1 -14.5L25.1 14.5L0 29L-25.1 14.5L-25.1 -14.5Z" stroke="#009473" fill="none" stroke-width="2"></path></g><g transform="translate(162 381)"><path d="M0 -24L20.8 -12L20.8 12L0 24L-20.8 12L-20.8 -12Z" stroke="#009473" fill="none" stroke-width="2"></path></g><g transform="translate(660 470)"><path d="M0 -24L20.8 -12L20.8 12L0 24L-20.8 12L-20.8 -12Z" stroke="#009473" fill="none" stroke-width="2"></path></g><g transform="translate(69 485)"><path d="M0 -25L21.7 -12.5L21.7 12.5L0 25L-21.7 12.5L-21.7 -12.5Z" stroke="#009473" fill="none" stroke-width="2"></path></g><g transform="translate(216 327)"><path d="M0 -25L21.7 -12.5L21.7 12.5L0 25L-21.7 12.5L-21.7 -12.5Z" stroke="#009473" fill="none" stroke-width="2"></path></g><g transform="translate(1173 401)"><path d="M0 -24L20.8 -12L20.8 12L0 24L-20.8 12L-20.8 -12Z" stroke="#009473" fill="none" stroke-width="2"></path></g><g transform="translate(991 126)"><path d="M0 -28L24.2 -14L24.2 14L0 28L-24.2 14L-24.2 -14Z" stroke="#009473" fill="none" stroke-width="2"></path></g><g transform="translate(67 152)"><path d="M0 -25L21.7 -12.5L21.7 12.5L0 25L-21.7 12.5L-21.7 -12.5Z" stroke="#009473" fill="none" stroke-width="2"></path></g><g transform="translate(192 454)"><path d="M0 -27L23.4 -13.5L23.4 13.5L0 27L-23.4 13.5L-23.4 -13.5Z" stroke="#009473" fill="none" stroke-width="2"></path></g><g transform="translate(317 386)"><path d="M0 -25L21.7 -12.5L21.7 12.5L0 25L-21.7 12.5L-21.7 -12.5Z" stroke="#009473" fill="none" stroke-width="2"></path></g><g transform="translate(123 204)"><path d="M0 -24L20.8 -12L20.8 12L0 24L-20.8 12L-20.8 -12Z" stroke="#009473" fill="none" stroke-width="2"></path></g><g transform="translate(618 52)"><path d="M0 -23L19.9 -11.5L19.9 11.5L0 23L-19.9 11.5L-19.9 -11.5Z" stroke="#009473" fill="none" stroke-width="2"></path></g><g transform="translate(491 202)"><path d="M0 -27L23.4 -13.5L23.4 13.5L0 27L-23.4 13.5L-23.4 -13.5Z" stroke="#009473" fill="none" stroke-width="2"></path></g><g transform="translate(601 425)"><path d="M0 -27L23.4 -13.5L23.4 13.5L0 27L-23.4 13.5L-23.4 -13.5Z" stroke="#009473" fill="none" stroke-width="2"></path></g><g transform="translate(49 13)"><path d="M0 -26L22.5 -13L22.5 13L0 26L-22.5 13L-22.5 -13Z" stroke="#009473" fill="none" stroke-width="2"></path></g><g transform="translate(359 144)"><path d="M0 -26L22.5 -13L22.5 13L0 26L-22.5 13L-22.5 -13Z" stroke="#009473" fill="none" stroke-width="2"></path></g><g transform="translate(501 308)"><path d="M0 -25L21.7 -12.5L21.7 12.5L0 25L-21.7 12.5L-21.7 -12.5Z" stroke="#009473" fill="none" stroke-width="2"></path></g><g transform="translate(926 383)"><path d="M0 -26L22.5 -13L22.5 13L0 26L-22.5 13L-22.5 -13Z" stroke="#009473" fill="none" stroke-width="2"></path></g><g transform="translate(828 188)"><path d="M0 -29L25.1 -14.5L25.1 14.5L0 29L-25.1 14.5L-25.1 -14.5Z" stroke="#009473" fill="none" stroke-width="2"></path></g><g transform="translate(251 496)"><path d="M0 -24L20.8 -12L20.8 12L0 24L-20.8 12L-20.8 -12Z" stroke="#009473" fill="none" stroke-width="2"></path></g><g transform="translate(171 162)"><path d="M0 -29L25.1 -14.5L25.1 14.5L0 29L-25.1 14.5L-25.1 -14.5Z" stroke="#009473" fill="none" stroke-width="2"></path></g><g transform="translate(786 345)"><path d="M0 -25L21.7 -12.5L21.7 12.5L0 25L-21.7 12.5L-21.7 -12.5Z" stroke="#009473" fill="none" stroke-width="2"></path></g><g transform="translate(640 219)"><path d="M0 -29L25.1 -14.5L25.1 14.5L0 29L-25.1 14.5L-25.1 -14.5Z" stroke="#009473" fill="none" stroke-width="2"></path></g><g transform="translate(1073 128)"><path d="M0 -24L20.8 -12L20.8 12L0 24L-20.8 12L-20.8 -12Z" stroke="#009473" fill="none" stroke-width="2"></path></g><g transform="translate(432 363)"><path d="M0 -25L21.7 -12.5L21.7 12.5L0 25L-21.7 12.5L-21.7 -12.5Z" stroke="#009473" fill="none" stroke-width="2"></path></g><g transform="translate(982 271)"><path d="M0 -28L24.2 -14L24.2 14L0 28L-24.2 14L-24.2 -14Z" stroke="#009473" fill="none" stroke-width="2"></path></g><g transform="translate(262 244)"><path d="M0 -27L23.4 -13.5L23.4 13.5L0 27L-23.4 13.5L-23.4 -13.5Z" stroke="#009473" fill="none" stroke-width="2"></path></g><g transform="translate(1068 266)"><path d="M0 -24L20.8 -12L20.8 12L0 24L-20.8 12L-20.8 -12Z" stroke="#009473" fill="none" stroke-width="2"></path></g><g transform="translate(402 7)"><path d="M0 -29L25.1 -14.5L25.1 14.5L0 29L-25.1 14.5L-25.1 -14.5Z" stroke="#009473" fill="none" stroke-width="2"></path></g><g transform="translate(1009 414)"><path d="M0 -23L19.9 -11.5L19.9 11.5L0 23L-19.9 11.5L-19.9 -11.5Z" stroke="#009473" fill="none" stroke-width="2"></path></g><g transform="translate(244 6)"><path d="M0 -23L19.9 -11.5L19.9 11.5L0 23L-19.9 11.5L-19.9 -11.5Z" stroke="#009473" fill="none" stroke-width="2"></path></g><g transform="translate(23 310)"><path d="M0 -28L24.2 -14L24.2 14L0 28L-24.2 14L-24.2 -14Z" stroke="#009473" fill="none" stroke-width="2"></path></g><g transform="translate(1010 491)"><path d="M0 -28L24.2 -14L24.2 14L0 28L-24.2 14L-24.2 -14Z" stroke="#009473" fill="none" stroke-width="2"></path></g><g transform="translate(784 259)"><path d="M0 -26L22.5 -13L22.5 13L0 26L-22.5 13L-22.5 -13Z" stroke="#009473" fill="none" stroke-width="2"></path></g><g transform="translate(1128 161)"><path d="M0 -24L20.8 -12L20.8 12L0 24L-20.8 12L-20.8 -12Z" stroke="#009473" fill="none" stroke-width="2"></path></g><g transform="translate(719 453)"><path d="M0 -25L21.7 -12.5L21.7 12.5L0 25L-21.7 12.5L-21.7 -12.5Z" stroke="#009473" fill="none" stroke-width="2"></path></g><g transform="translate(758 17)"><path d="M0 -23L19.9 -11.5L19.9 11.5L0 23L-19.9 11.5L-19.9 -11.5Z" stroke="#009473" fill="none" stroke-width="2"></path></g><g transform="translate(920 90)"><path d="M0 -25L21.7 -12.5L21.7 12.5L0 25L-21.7 12.5L-21.7 -12.5Z" stroke="#009473" fill="none" stroke-width="2"></path></g><g transform="translate(229 391)"><path d="M0 -27L23.4 -13.5L23.4 13.5L0 27L-23.4 13.5L-23.4 -13.5Z" stroke="#009473" fill="none" stroke-width="2"></path></g><g transform="translate(573 488)"><path d="M0 -24L20.8 -12L20.8 12L0 24L-20.8 12L-20.8 -12Z" stroke="#009473" fill="none" stroke-width="2"></path></g><g transform="translate(849 93)"><path d="M0 -24L20.8 -12L20.8 12L0 24L-20.8 12L-20.8 -12Z" stroke="#009473" fill="none" stroke-width="2"></path></g><g transform="translate(5 429)"><path d="M0 -25L21.7 -12.5L21.7 12.5L0 25L-21.7 12.5L-21.7 -12.5Z" stroke="#009473" fill="none" stroke-width="2"></path></g><g transform="translate(373 78)"><path d="M0 -27L23.4 -13.5L23.4 13.5L0 27L-23.4 13.5L-23.4 -13.5Z" stroke="#009473" fill="none" stroke-width="2"></path></g><g transform="translate(1048 352)"><path d="M0 -26L22.5 -13L22.5 13L0 26L-22.5 13L-22.5 -13Z" stroke="#009473" fill="none" stroke-width="2"></path></g><g transform="translate(547 236)"><path d="M0 -23L19.9 -11.5L19.9 11.5L0 23L-19.9 11.5L-19.9 -11.5Z" stroke="#009473" fill="none" stroke-width="2"></path></g><g transform="translate(959 33)"><path d="M0 -29L25.1 -14.5L25.1 14.5L0 29L-25.1 14.5L-25.1 -14.5Z" stroke="#009473" fill="none" stroke-width="2"></path></g><g transform="translate(2 162)"><path d="M0 -29L25.1 -14.5L25.1 14.5L0 29L-25.1 14.5L-25.1 -14.5Z" stroke="#009473" fill="none" stroke-width="2"></path></g><g transform="translate(645 293)"><path d="M0 -25L21.7 -12.5L21.7 12.5L0 25L-21.7 12.5L-21.7 -12.5Z" stroke="#009473" fill="none" stroke-width="2"></path></g><g transform="translate(824 3)"><path d="M0 -27L23.4 -13.5L23.4 13.5L0 27L-23.4 13.5L-23.4 -13.5Z" stroke="#009473" fill="none" stroke-width="2"></path></g><g transform="translate(440 493)"><path d="M0 -28L24.2 -14L24.2 14L0 28L-24.2 14L-24.2 -14Z" stroke="#009473" fill="none" stroke-width="2"></path></g><g transform="translate(103 47)"><path d="M0 -23L19.9 -11.5L19.9 11.5L0 23L-19.9 11.5L-19.9 -11.5Z" stroke="#009473" fill="none" stroke-width="2"></path></g><g transform="translate(674 408)"><path d="M0 -25L21.7 -12.5L21.7 12.5L0 25L-21.7 12.5L-21.7 -12.5Z" stroke="#009473" fill="none" stroke-width="2"></path></g><g transform="translate(416 176)"><path d="M0 -25L21.7 -12.5L21.7 12.5L0 25L-21.7 12.5L-21.7 -12.5Z" stroke="#009473" fill="none" stroke-width="2"></path></g><g transform="translate(340 8)"><path d="M0 -27L23.4 -13.5L23.4 13.5L0 27L-23.4 13.5L-23.4 -13.5Z" stroke="#009473" fill="none" stroke-width="2"></path></g><g transform="translate(1175 338)"><path d="M0 -25L21.7 -12.5L21.7 12.5L0 25L-21.7 12.5L-21.7 -12.5Z" stroke="#009473" fill="none" stroke-width="2"></path></g><g transform="translate(2 493)"><path d="M0 -26L22.5 -13L22.5 13L0 26L-22.5 13L-22.5 -13Z" stroke="#009473" fill="none" stroke-width="2"></path></g><g transform="translate(131 496)"><path d="M0 -29L25.1 -14.5L25.1 14.5L0 29L-25.1 14.5L-25.1 -14.5Z" stroke="#009473" fill="none" stroke-width="2"></path></g></g></svg>